<svg width="14" height="14" viewBox="0 0 14 14" fill="none" xmlns="http://www.w3.org/2000/svg">
<path d="M13.8799 0.12013C13.8275 0.0677646 13.7619 0.0305541 13.6901 0.0124479C13.6183 -0.00565837 13.5429 -0.00398494 13.472 0.0172906L0.924437 3.78157C0.371492 3.94744 0 4.44673 0 5.0242C0 5.59367 0.382402 6.10065 0.929988 6.25711L6.22891 7.77108L7.74287 13.07C7.89934 13.6176 8.40632 14 8.976 14C9.55325 14 10.0525 13.6285 10.2184 13.0755L13.9827 0.52799C14.004 0.457056 14.0057 0.381681 13.9876 0.309869C13.9694 0.238057 13.9322 0.17249 13.8799 0.12013ZM0.820312 5.02401C0.820312 4.8118 0.956867 4.62827 1.16014 4.56729L12.1495 1.27048L6.44131 6.97865L1.15533 5.46838C0.958098 5.41199 0.820312 5.22936 0.820312 5.02401ZM9.43272 12.8398C9.37174 13.0431 9.18821 13.1797 8.97578 13.1797C8.77062 13.1797 8.58799 13.0419 8.53163 12.8447L7.02136 7.55867L12.7295 1.8505L9.43272 12.8398Z" fill="white"/>
</svg>
