<svg width="48" height="46" viewBox="0 0 48 46" fill="none" xmlns="http://www.w3.org/2000/svg">
<path d="M40.9422 14.5524H33.2026V6.80537C33.2026 5.90828 33.0252 5.02003 32.6806 4.19173C32.3359 3.36342 31.8308 2.61141 31.1944 1.97895C30.558 1.3465 29.8027 0.846071 28.9721 0.506467C28.1415 0.166862 27.2519 -0.0052193 26.3545 0.000120569H21.3906C19.5842 0.000118576 17.8516 0.716775 16.5734 1.99272C15.2951 3.26866 14.5756 4.99958 14.5729 6.80537V14.5423H6.82321C5.01773 14.5423 3.28619 15.2593 2.00952 16.5355C0.732851 17.8117 0.015625 19.5427 0.015625 21.3476L0.015625 26.33C0.015623 28.1358 0.732525 29.8678 2.0089 31.1456C3.28528 32.4234 5.0168 33.1427 6.82321 33.1453H14.5729C14.5729 37.51 14.0664 40.4873 12.405 43.4444C12.2813 43.6818 12.2279 43.9495 12.251 44.2161C12.2741 44.4828 12.3728 44.7374 12.5355 44.9499C12.6982 45.1625 12.9181 45.3243 13.1695 45.4164C13.4209 45.5085 13.6934 45.527 13.955 45.4697C19.3443 44.2241 29.6367 40.8823 33.2026 33.115H40.9523C42.7543 33.115 44.4828 32.4008 45.7589 31.1289C47.0349 29.8571 47.7545 28.1313 47.7599 26.33V21.3678C47.7599 19.562 47.043 17.83 45.7666 16.5522C44.4902 15.2743 42.7587 14.5551 40.9523 14.5524H40.9422ZM22.0592 29.7427C21.7506 29.7431 21.4449 29.6825 21.1597 29.5643C20.8746 29.4461 20.6157 29.2727 20.3979 29.0541L15.8696 24.5274C15.4466 24.0834 15.214 23.4916 15.2214 22.8784C15.2289 22.2653 15.4759 21.6794 15.9096 21.2458C16.3434 20.8122 16.9295 20.5653 17.5428 20.5578C18.1562 20.5504 18.7482 20.7829 19.1924 21.2058L22.0592 24.0717L28.573 17.5601C29.0172 17.1372 29.6092 16.9047 30.2226 16.9122C30.8359 16.9196 31.422 17.1665 31.8558 17.6001C32.2895 18.0337 32.5365 18.6196 32.544 19.2328C32.5514 19.8459 32.3188 20.4377 31.8958 20.8817L23.7206 29.0541C23.2757 29.4846 22.6783 29.7213 22.0592 29.7123V29.7427Z" fill="white"/>
</svg>
