<svg width="22" height="18" viewBox="0 0 22 18" fill="none" xmlns="http://www.w3.org/2000/svg">
<path d="M21.4523 4.46818L19.0096 12.1603C18.9283 12.4241 18.7649 12.6551 18.5431 12.8194C18.3213 12.9838 18.0528 13.0729 17.7767 13.0738H8.35048C8.08075 13.0752 7.81682 12.9955 7.59292 12.8451C7.36902 12.6946 7.19547 12.4804 7.09477 12.2302L3.48792 2.57377H1.41154C1.17517 2.56518 0.951354 2.46524 0.787173 2.29499C0.622992 2.12473 0.53125 1.89743 0.53125 1.66091C0.53125 1.42439 0.622992 1.19708 0.787173 1.02683C0.951354 0.856572 1.17517 0.756636 1.41154 0.748047L4.12783 0.748047C4.3179 0.750342 4.50276 0.810507 4.65777 0.920524C4.81279 1.03054 4.93059 1.18519 4.99549 1.36385L8.71563 11.2456H17.3923L19.3325 5.08278H8.57825C8.45558 5.08723 8.33327 5.06692 8.21862 5.02306C8.10398 4.97919 7.99935 4.91266 7.91099 4.82746C7.82263 4.74225 7.75235 4.64011 7.70435 4.52713C7.65635 4.41416 7.63161 4.29267 7.63161 4.16992C7.63161 4.04717 7.65635 3.92568 7.70435 3.8127C7.75235 3.69973 7.82263 3.59758 7.91099 3.51238C7.99935 3.42717 8.10398 3.36065 8.21862 3.31678C8.33327 3.27291 8.45558 3.2526 8.57825 3.25706H20.5846C20.7284 3.25926 20.8696 3.29558 20.9965 3.36305C21.1235 3.43052 21.2326 3.52719 21.3149 3.6451C21.4037 3.76044 21.4626 3.89589 21.4866 4.03945C21.5106 4.183 21.4988 4.33026 21.4523 4.46818ZM8.80721 14.2837C8.46466 14.2842 8.13289 14.4035 7.8684 14.6212C7.6039 14.8388 7.42303 15.1415 7.3566 15.4775C7.29016 15.8135 7.34227 16.1622 7.50403 16.4642C7.6658 16.7661 7.92723 17.0027 8.24381 17.1335C8.56038 17.2643 8.91252 17.2814 9.24027 17.1818C9.56801 17.0822 9.85109 16.872 10.0413 16.5871C10.2315 16.3022 10.3171 15.9602 10.2834 15.6193C10.2498 15.2784 10.0991 14.9597 9.85685 14.7175C9.57705 14.4414 9.20032 14.2857 8.80721 14.2837ZM17.0019 14.2837C16.6593 14.2842 16.3275 14.4035 16.063 14.6212C15.7986 14.8388 15.6177 15.1415 15.5513 15.4775C15.4848 15.8135 15.5369 16.1622 15.6987 16.4642C15.8605 16.7661 16.1219 17.0027 16.4385 17.1335C16.755 17.2643 17.1072 17.2814 17.4349 17.1818C17.7627 17.0822 18.0457 16.872 18.2359 16.5871C18.4262 16.3022 18.5117 15.9602 18.4781 15.6193C18.4445 15.2784 18.2937 14.9597 18.0515 14.7175C17.7717 14.4414 17.395 14.2857 17.0019 14.2837Z" fill="#184363"/>
</svg>
