<svg width="18" height="18" viewBox="0 0 18 18" fill="none" xmlns="http://www.w3.org/2000/svg">
<path d="M17.5169 3.98705C17.1367 3.07751 16.5017 2.29727 15.6883 1.74028C14.8749 1.1833 13.9178 0.873333 12.9324 0.8477C12.1833 0.818328 11.4377 0.963861 10.7546 1.27276C10.0715 1.58166 9.46984 2.04544 8.99719 2.62732C8.52466 2.04561 7.92316 1.58193 7.24033 1.27304C6.5575 0.964146 5.81212 0.81852 5.06324 0.8477C4.07839 0.87403 3.12213 1.18433 2.30945 1.74126C1.49678 2.2982 0.862319 3.07806 0.482374 3.98705C0.041515 4.96007 -0.0964565 6.04321 0.0863925 7.09568C0.269242 8.14815 0.764455 9.12128 1.50767 9.88859C3.69345 12.3649 6.01319 14.7197 8.45647 16.9424C8.61381 17.0774 8.81428 17.1516 9.0216 17.1516C9.22892 17.1516 9.4294 17.0774 9.58673 16.9424C9.62823 16.9216 12.8518 13.991 16.5355 9.88859C17.2641 9.11205 17.7462 8.13699 17.9209 7.08659C18.0955 6.03619 17.955 4.95759 17.5169 3.98705ZM15.2515 8.78152C13.2537 11.0074 11.166 13.151 8.99353 15.2067C6.81953 13.1541 4.73331 11.0104 2.74046 8.78152C2.22049 8.24623 1.8713 7.56852 1.73722 6.83441C1.60313 6.1003 1.6902 5.34291 1.98736 4.65837C2.24833 4.04983 2.67509 3.5269 3.21895 3.14921C3.76281 2.77153 4.40187 2.55432 5.06324 2.52235C5.74412 2.46171 6.42519 2.63647 6.99276 3.01744C7.56033 3.39841 7.98005 3.96254 8.18184 4.61565C8.22283 4.79542 8.32416 4.95573 8.46896 5.06988C8.61376 5.18403 8.79329 5.24514 8.97766 5.24303C9.16271 5.23857 9.34156 5.17539 9.48834 5.06261C9.63513 4.94984 9.74225 4.79331 9.79423 4.61565C9.99955 3.96475 10.4201 3.40299 10.9868 3.0226C11.5535 2.64222 12.2327 2.46581 12.9128 2.52235C13.576 2.55521 14.2163 2.77507 14.7597 3.15651C15.3031 3.53796 15.7275 4.06541 15.9838 4.6779C16.2891 5.35612 16.3826 6.1107 16.2519 6.8429C16.1212 7.57509 15.7725 8.25078 15.2515 8.78152ZM15.0428 6.35377C15.0484 6.44998 15.0349 6.54635 15.0032 6.63735C14.9715 6.72836 14.9221 6.81221 14.858 6.8841C14.7938 6.95599 14.716 7.01451 14.6292 7.0563C14.5424 7.09809 14.4481 7.12232 14.3519 7.12762H14.3104C14.1232 7.12792 13.9429 7.05649 13.8067 6.92799C13.6705 6.7995 13.5887 6.62372 13.5781 6.43677C13.4938 5.24426 12.7236 5.05506 12.5735 5.03431C12.3837 5.00553 12.2125 4.90446 12.0955 4.75226C11.9786 4.60006 11.925 4.40852 11.9461 4.21774C11.9797 4.02628 12.085 3.85481 12.2406 3.73825C12.3961 3.62169 12.5903 3.56881 12.7835 3.59036C13.4226 3.71669 13.9978 4.06135 14.4107 4.56529C14.8236 5.06924 15.0483 5.70108 15.0464 6.35255L15.0428 6.35377ZM14.0382 7.56825C14.1889 7.72753 14.278 7.93519 14.2897 8.15414C14.2926 8.26417 14.2717 8.37354 14.2283 8.4747C14.1849 8.57585 14.12 8.66638 14.0382 8.74002C13.9626 8.81934 13.8717 8.88249 13.771 8.92563C13.6703 8.96878 13.5619 8.99103 13.4523 8.99103C13.3428 8.99103 13.2343 8.96878 13.1336 8.92563C13.0329 8.88249 12.942 8.81934 12.8665 8.74002C12.7124 8.58301 12.6227 8.37399 12.615 8.15414C12.6141 8.04439 12.6359 7.93564 12.6792 7.83478C12.7225 7.73393 12.7862 7.64316 12.8665 7.56825C13.0235 7.41416 13.2325 7.32445 13.4523 7.31681C13.6694 7.3352 13.8754 7.42049 14.0419 7.56093L14.0382 7.56825Z" fill="#184363"/>
</svg>
