<svg width="20" height="12" viewBox="0 0 20 12" fill="none" xmlns="http://www.w3.org/2000/svg">
<path d="M19.7381 8.25254L17.0206 10.9474C16.9415 11.0291 16.8469 11.0943 16.7425 11.1392C16.638 11.184 16.5256 11.2077 16.4119 11.2087C16.2979 11.2098 16.1849 11.1871 16.0801 11.1421C15.9753 11.0971 15.881 11.0308 15.8032 10.9474L13.0428 8.25254C12.9612 8.17413 12.896 8.0804 12.8507 7.97671C12.8055 7.87303 12.7812 7.76144 12.7792 7.64834C12.7772 7.53524 12.7976 7.42286 12.8391 7.31764C12.8807 7.21243 12.9426 7.11645 13.0213 7.03521C13.0976 6.95324 13.1899 6.88786 13.2926 6.84315C13.3952 6.79845 13.506 6.77538 13.618 6.77538C13.73 6.77538 13.8408 6.79845 13.9434 6.84315C14.0461 6.88786 14.1384 6.95324 14.2147 7.03521L15.4082 8.27402V2.53587H7.80466C7.68777 2.5402 7.57121 2.52092 7.46195 2.47918C7.35268 2.43743 7.25296 2.37409 7.16873 2.29293C7.08451 2.21176 7.01751 2.11445 6.97175 2.00681C6.92599 1.89916 6.90241 1.7834 6.90241 1.66643C6.90241 1.54947 6.92599 1.4337 6.97175 1.32606C7.01751 1.21841 7.08451 1.1211 7.16873 1.03994C7.25296 0.958778 7.35268 0.895432 7.46195 0.85369C7.57121 0.811948 7.68777 0.792666 7.80466 0.796997H16.3904C16.4989 0.796629 16.6062 0.818804 16.7057 0.862116C16.8051 0.905428 16.8945 0.968932 16.9681 1.0486C17.0417 1.12827 17.098 1.22237 17.1333 1.32492C17.1686 1.42748 17.1822 1.53625 17.1733 1.64435V8.25254L18.4778 7.01373C18.6519 6.85131 18.8811 6.76099 19.1193 6.76099C19.3574 6.76099 19.5866 6.85131 19.7607 7.01373C19.9197 7.18217 20.0064 7.40619 20.0021 7.63776C19.9979 7.86934 19.9031 8.09003 19.7381 8.25254ZM12.1954 9.49135H4.5668V3.73052L5.76026 4.96933C5.83513 5.05064 5.92585 5.11577 6.02683 5.16072C6.12781 5.20567 6.23692 5.22948 6.34744 5.2307C6.51739 5.22795 6.6828 5.17549 6.82326 5.07978C6.96373 4.98408 7.07308 4.84933 7.13782 4.69218C7.20256 4.53502 7.21985 4.36235 7.18756 4.19548C7.15526 4.02861 7.0748 3.87485 6.95611 3.7532L4.21831 1.03569C4.0503 0.87863 3.82889 0.79126 3.5989 0.79126C3.36891 0.79126 3.14751 0.87863 2.9795 1.03569L0.263183 3.73052C0.180092 3.80864 0.113876 3.90294 0.0686134 4.00762C0.0233506 4.1123 0 4.22514 0 4.33919C0 4.45323 0.0233506 4.56607 0.0686134 4.67075C0.113876 4.77543 0.180092 4.86973 0.263183 4.94785C0.434802 5.11516 0.664993 5.20879 0.904668 5.20879C1.14434 5.20879 1.37453 5.11516 1.54615 4.94785L2.84941 3.70904V10.3172C2.83785 10.4281 2.84934 10.5401 2.88316 10.6462C2.91698 10.7524 2.97239 10.8505 3.04592 10.9342C3.11945 11.0179 3.2095 11.0855 3.31041 11.1328C3.41133 11.18 3.52093 11.2059 3.63232 11.2087H12.2181C12.3334 11.2113 12.4481 11.1907 12.5553 11.148C12.6625 11.1053 12.76 11.0415 12.842 10.9603C12.924 10.8792 12.9888 10.7823 13.0326 10.6755C13.0764 10.5688 13.0982 10.4543 13.0967 10.3389C13.0953 10.2235 13.0706 10.1096 13.0242 10.004C12.9778 9.89837 12.9106 9.80317 12.8266 9.72407C12.7426 9.64497 12.6435 9.5836 12.5353 9.54362C12.427 9.50364 12.3118 9.48586 12.1966 9.49135H12.1954Z" fill="#184363"/>
</svg>
