<svg width="48" height="47" viewBox="0 0 48 47" fill="none" xmlns="http://www.w3.org/2000/svg">
<path d="M40.9422 15.3024H33.2026V7.55537C33.2026 6.65828 33.0252 5.77003 32.6806 4.94173C32.3359 4.11342 31.8308 3.36141 31.1944 2.72896C30.558 2.0965 29.8027 1.59607 28.9721 1.25647C28.1415 0.916863 27.2519 0.744781 26.3545 0.750121H21.3906C19.5842 0.750119 17.8516 1.46678 16.5734 2.74272C15.2951 4.01866 14.5756 5.74958 14.5729 7.55537V15.2923H6.82321C5.01773 15.2923 3.28619 16.0093 2.00952 17.2855C0.732851 18.5617 0.015625 20.2927 0.015625 22.0976L0.015625 27.08C0.015623 28.8858 0.732525 30.6178 2.0089 31.8956C3.28528 33.1734 5.0168 33.8927 6.82321 33.8954H14.5729C14.5729 38.26 14.0664 41.2373 12.405 44.1944C12.2813 44.4318 12.2279 44.6995 12.251 44.9661C12.2741 45.2328 12.3728 45.4874 12.5355 45.6999C12.6982 45.9125 12.9181 46.0744 13.1695 46.1664C13.4209 46.2585 13.6934 46.277 13.955 46.2198C19.3443 44.9741 29.6367 41.6323 33.2026 33.865H40.9523C42.7543 33.865 44.4828 33.1508 45.7589 31.8789C47.0349 30.6071 47.7545 28.8813 47.7599 27.08V22.1178C47.7599 20.312 47.043 18.58 45.7666 17.3022C44.4902 16.0243 42.7587 15.3051 40.9523 15.3024H40.9422ZM22.0592 30.4927C21.7506 30.4932 21.4449 30.4325 21.1597 30.3143C20.8746 30.1962 20.6157 30.0227 20.3979 29.8041L15.8696 25.2774C15.4466 24.8334 15.214 24.2416 15.2214 23.6284C15.2289 23.0153 15.4759 22.4294 15.9096 21.9958C16.3434 21.5622 16.9295 21.3153 17.5428 21.3078C18.1562 21.3004 18.7482 21.5329 19.1924 21.9558L22.0592 24.8217L28.573 18.3101C29.0172 17.8872 29.6092 17.6547 30.2226 17.6622C30.8359 17.6696 31.422 17.9165 31.8558 18.3501C32.2895 18.7837 32.5365 19.3696 32.544 19.9828C32.5514 20.5959 32.3188 21.1877 31.8958 21.6317L23.7206 29.8041C23.2757 30.2346 22.6783 30.4713 22.0592 30.4623V30.4927Z" fill="#15A9E3"/>
</svg>
